<?xml version="1.0" standalone="no"?>
<!DOCTYPE svg PUBLIC "-//W3C//DTD SVG 20010904//EN"
 "http://www.w3.org/TR/2001/REC-SVG-20010904/DTD/svg10.dtd">
<svg version="1.0" xmlns="http://www.w3.org/2000/svg"
 width="640.000000pt" height="640.000000pt" viewBox="0 0 640.000000 640.000000"
 preserveAspectRatio="xMidYMid meet">
<metadata>
Created by potrace 1.11, written by Peter Selinger 2001-2013
</metadata>
<g transform="translate(0.000000,640.000000) scale(0.100000,-0.100000)"
fill="#000000" stroke="none">
<path d="M2940 5684 c-589 -72 -1102 -318 -1504 -720 -764 -763 -949 -1938
-457 -2902 316 -618 888 -1084 1555 -1267 250 -68 348 -80 666 -80 318 0 416
12 666 80 840 231 1508 899 1739 1739 68 250 80 348 80 666 0 318 -12 416 -80
666 -231 840 -899 1508 -1739 1738 -235 65 -341 79 -631 81 -143 2 -276 1
-295 -1z m508 -165 c509 -55 992 -281 1364 -637 396 -380 649 -892 707 -1434
14 -125 14 -371 0 -496 -48 -447 -241 -901 -527 -1242 -390 -465 -947 -765
-1544 -829 -125 -14 -371 -14 -496 0 -509 55 -992 281 -1364 637 -396 380
-649 892 -707 1434 -14 125 -14 371 0 496 45 416 216 844 470 1171 92 120 240
274 359 373 334 281 793 478 1225 526 114 13 399 14 513 1z"/>
<path d="M2928 5381 c-43 -4 -79 -9 -82 -12 -5 -5 -26 -446 -26 -550 l0 -55
73 11 72 11 7 198 c4 109 9 200 11 202 2 2 33 -62 70 -143 l66 -148 67 0 68 0
67 149 67 150 6 -45 c3 -24 7 -115 9 -202 3 -87 6 -160 8 -162 2 -2 36 -6 74
-10 l70 -7 -10 296 c-6 162 -14 298 -18 302 -8 8 -188 24 -198 18 -4 -2 -35
-75 -69 -161 -35 -87 -66 -162 -70 -166 -4 -4 -38 69 -75 163 -59 145 -72 170
-89 168 -12 0 -56 -4 -98 -7z"/>
<path d="M4280 4768 c-85 -134 -155 -248 -155 -254 0 -6 27 -34 61 -62 l60
-51 152 79 c84 44 152 78 152 76 0 -1 -35 -70 -78 -152 l-78 -149 55 -66 55
-66 81 50 c44 27 158 99 253 159 l172 110 -46 59 c-27 33 -51 56 -58 52 -6 -4
-74 -48 -151 -98 -77 -50 -146 -94 -153 -99 -7 -4 19 56 58 135 l72 142 -51
51 -51 51 -145 -73 -145 -72 101 152 c56 83 103 159 105 167 2 10 -18 33 -51
59 -29 23 -55 42 -57 42 -2 0 -73 -109 -158 -242z"/>
<path d="M1773 4875 c-32 -16 -85 -61 -144 -123 -89 -91 -239 -264 -239 -274
0 -3 97 -96 215 -207 l214 -202 73 78 c40 43 121 128 179 189 145 153 174 219
131 304 -28 56 -76 82 -145 78 l-57 -3 0 41 c0 75 -70 144 -146 144 -16 0 -53
-11 -81 -25z m111 -121 c30 -30 19 -61 -53 -141 -38 -43 -93 -102 -123 -130
l-54 -53 -37 31 c-20 17 -37 37 -37 44 0 8 55 71 123 140 125 129 148 142 181
109z m191 -154 c11 -13 15 -27 11 -43 -5 -22 -235 -278 -255 -285 -4 -1 -26
14 -49 35 l-42 38 134 138 c142 145 164 158 201 117z"/>
<path d="M3021 4670 c-377 -48 -734 -245 -967 -534 -322 -400 -416 -922 -254
-1407 45 -135 81 -211 157 -329 225 -347 576 -581 986 -657 140 -26 409 -23
547 6 395 84 726 306 942 631 104 158 178 335 219 530 29 138 32 407 6 547
-86 466 -383 860 -806 1073 -89 44 -279 106 -386 125 -109 20 -342 27 -444 15z
m429 -96 c266 -46 533 -187 735 -389 245 -245 379 -541 410 -902 l7 -83 -701
0 -701 0 0 -701 0 -701 -82 7 c-362 31 -658 165 -903 410 -245 245 -379 541
-410 903 l-7 82 701 0 701 0 0 701 0 701 83 -7 c45 -4 120 -13 167 -21z"/>
</g>
</svg>
